<svg version="1.1" xmlns="http://www.w3.org/2000/svg" xmlns:xlink="http://www.w3.org/1999/xlink" width="1899" height="933"><defs/><g><g transform="translate(-246,-14) scale(1,1)"><rect fill="#C0C0C0" stroke="none" x="735" y="55" width="175" height="192" opacity="0.2"/></g><g transform="translate(-246,-14) scale(1,1)"><rect fill="#ffffff" stroke="none" x="728" y="48" width="175" height="192"/></g><g transform="translate(-246,-14) scale(1,1)"><path fill="none" stroke="#000000" d="M 728 48 L 903 48 L 903 240 L 728 240 L 728 48 Z Z" stroke-miterlimit="10"/></g><g transform="translate(-246,-14) scale(1,1)"><path fill="none" stroke="#000000" d="M 728 73 L 903 73" stroke-miterlimit="10"/></g><g transform="translate(-246,-14) scale(1,1)"><path fill="none" stroke="#000000" d="M 728 231 L 903 231" stroke-miterlimit="10"/></g><g transform="translate(-246,-14) scale(1,1)"><g><path fill="none" stroke="none"/><text fill="#000000" stroke="none" font-family="Arial" font-size="13px" font-style="normal" font-weight="bold" text-decoration="none" x="801.04638671875" y="66">User</text></g></g><g transform="translate(-246,-14) scale(1,1)"><g><path fill="none" stroke="none"/><text fill="#000000" stroke="none" font-family="Arial" font-size="13px" font-style="normal" font-weight="normal" text-decoration="none" x="733" y="89">-id: int</text></g></g><g transform="translate(-246,-14) scale(1,1)"><g><path fill="none" stroke="none"/><text fill="#000000" stroke="none" font-family="Arial" font-size="13px" font-style="normal" font-weight="normal" text-decoration="none" x="733" y="104">-firstName: string</text></g></g><g transform="translate(-246,-14) scale(1,1)"><g><path fill="none" stroke="none"/><text fill="#000000" stroke="none" font-family="Arial" font-size="13px" font-style="normal" font-weight="normal" text-decoration="none" x="733" y="119">-lastName: string</text></g></g><g transform="translate(-246,-14) scale(1,1)"><g><path fill="none" stroke="none"/><text fill="#000000" stroke="none" font-family="Arial" font-size="13px" font-style="normal" font-weight="normal" text-decoration="none" x="733" y="134">-email: string</text></g></g><g transform="translate(-246,-14) scale(1,1)"><g><path fill="none" stroke="none"/><text fill="#000000" stroke="none" font-family="Arial" font-size="13px" font-style="normal" font-weight="normal" text-decoration="none" x="733" y="149">-phoneNumber: int</text></g></g><g transform="translate(-246,-14) scale(1,1)"><g><path fill="none" stroke="none"/><text fill="#000000" stroke="none" font-family="Arial" font-size="13px" font-style="normal" font-weight="normal" text-decoration="none" x="733" y="164">-imageProfile: string</text></g></g><g transform="translate(-246,-14) scale(1,1)"><g><path fill="none" stroke="none"/><text fill="#000000" stroke="none" font-family="Arial" font-size="13px" font-style="normal" font-weight="normal" text-decoration="none" x="733" y="179">-password: string</text></g></g><g transform="translate(-246,-14) scale(1,1)"><g><path fill="none" stroke="none"/><text fill="#000000" stroke="none" font-family="Arial" font-size="13px" font-style="normal" font-weight="normal" text-decoration="none" x="733" y="194">-roleId: Role</text></g></g><g transform="translate(-246,-14) scale(1,1)"><g><path fill="none" stroke="none"/><text fill="#000000" stroke="none" font-family="Arial" font-size="13px" font-style="normal" font-weight="normal" text-decoration="none" x="733" y="208.5">-status: enum</text></g></g><g transform="translate(-246,-14) scale(1,1)"><g><path fill="none" stroke="none"/><text fill="#000000" stroke="none" font-family="Arial" font-size="13px" font-style="normal" font-weight="normal" text-decoration="none" x="733" y="224">-specialityId: Speciality</text></g></g><g transform="translate(-246,-14) scale(1,1)"><rect fill="#C0C0C0" stroke="none" x="271" y="503" width="167" height="72" opacity="0.2"/></g><g transform="translate(-246,-14) scale(1,1)"><rect fill="#ffffff" stroke="none" x="264" y="496" width="167" height="72"/></g><g transform="translate(-246,-14) scale(1,1)"><path fill="none" stroke="#000000" d="M 264 496 L 431 496 L 431 568 L 264 568 L 264 496 Z Z" stroke-miterlimit="10"/></g><g transform="translate(-246,-14) scale(1,1)"><path fill="none" stroke="#000000" d="M 264 521 L 431 521" stroke-miterlimit="10"/></g><g transform="translate(-246,-14) scale(1,1)"><path fill="none" stroke="#000000" d="M 264 559 L 431 559" stroke-miterlimit="10"/></g><g transform="translate(-246,-14) scale(1,1)"><g><path fill="none" stroke="none"/><text fill="#000000" stroke="none" font-family="Arial" font-size="13px" font-style="normal" font-weight="bold" text-decoration="none" x="333.41455078125" y="514">Role</text></g></g><g transform="translate(-246,-14) scale(1,1)"><g><path fill="none" stroke="none"/><text fill="#000000" stroke="none" font-family="Arial" font-size="13px" font-style="normal" font-weight="normal" text-decoration="none" x="269" y="537">-name: string</text></g></g><g transform="translate(-246,-14) scale(1,1)"><g><path fill="none" stroke="none"/><text fill="#000000" stroke="none" font-family="Arial" font-size="13px" font-style="normal" font-weight="normal" text-decoration="none" x="269" y="552">-description: string</text></g></g><g transform="translate(-246,-14) scale(1,1)"><path fill="none" stroke="#000000" d="M 727 217 L 392 495" stroke-miterlimit="10"/></g><g transform="translate(-246,-14) scale(1,1)"><g><path fill="none" stroke="none"/><text fill="#000000" stroke="none" font-family="Arial" font-size="13px" font-style="normal" font-weight="normal" text-decoration="none" x="698.5" y="226">1</text></g></g><g transform="translate(-246,-14) scale(1,1)"><path fill="none" stroke="#000000" d="M 392 495 L 727 217" stroke-miterlimit="10"/></g><g transform="translate(-246,-14) scale(1,1)"><g><path fill="none" stroke="none"/><text fill="#000000" stroke="none" font-family="Arial" font-size="13px" font-style="normal" font-weight="normal" text-decoration="none" x="408.5" y="498">1</text></g></g><g transform="translate(-246,-14) scale(1,1)"><g><path fill="none" stroke="none"/><text fill="#000000" stroke="none" font-family="Arial" font-size="13px" font-style="normal" font-weight="normal" text-decoration="none" x="693.5" y="261">1..*</text></g></g><g transform="translate(-246,-14) scale(1,1)"><rect fill="#C0C0C0" stroke="none" x="1487" y="31" width="183" height="267" opacity="0.2"/></g><g transform="translate(-246,-14) scale(1,1)"><rect fill="#ffffff" stroke="none" x="1480" y="24" width="183" height="267"/></g><g transform="translate(-246,-14) scale(1,1)"><path fill="none" stroke="#000000" d="M 1480 24 L 1663 24 L 1663 291 L 1480 291 L 1480 24 Z Z" stroke-miterlimit="10"/></g><g transform="translate(-246,-14) scale(1,1)"><path fill="none" stroke="#000000" d="M 1480 49 L 1663 49" stroke-miterlimit="10"/></g><g transform="translate(-246,-14) scale(1,1)"><path fill="none" stroke="#000000" d="M 1480 282 L 1663 282" stroke-miterlimit="10"/></g><g transform="translate(-246,-14) scale(1,1)"><g><path fill="none" stroke="none"/><text fill="#000000" stroke="none" font-family="Arial" font-size="13px" font-style="normal" font-weight="bold" text-decoration="none" x="1531.78271484375" y="42">Consultation</text></g></g><g transform="translate(-246,-14) scale(1,1)"><g><path fill="none" stroke="none"/><text fill="#000000" stroke="none" font-family="Arial" font-size="13px" font-style="normal" font-weight="normal" text-decoration="none" x="1485" y="65">-id: int</text></g></g><g transform="translate(-246,-14) scale(1,1)"><g><path fill="none" stroke="none"/><text fill="#000000" stroke="none" font-family="Arial" font-size="13px" font-style="normal" font-weight="normal" text-decoration="none" x="1485" y="80">-consultationDate: Date</text></g></g><g transform="translate(-246,-14) scale(1,1)"><g><path fill="none" stroke="none"/><text fill="#000000" stroke="none" font-family="Arial" font-size="13px" font-style="normal" font-weight="normal" text-decoration="none" x="1485" y="95">-consultationReason: string</text></g></g><g transform="translate(-246,-14) scale(1,1)"><g><path fill="none" stroke="none"/><text fill="#000000" stroke="none" font-family="Arial" font-size="13px" font-style="normal" font-weight="normal" text-decoration="none" x="1485" y="110">-diagnosis: string</text></g></g><g transform="translate(-246,-14) scale(1,1)"><g><path fill="none" stroke="none"/><text fill="#000000" stroke="none" font-family="Arial" font-size="13px" font-style="normal" font-weight="normal" text-decoration="none" x="1485" y="125">-doctorNotes: String</text></g></g><g transform="translate(-246,-14) scale(1,1)"><g><path fill="none" stroke="none"/><text fill="#000000" stroke="none" font-family="Arial" font-size="13px" font-style="normal" font-weight="normal" text-decoration="none" x="1485" y="140">-allergies: string</text></g></g><g transform="translate(-246,-14) scale(1,1)"><g><path fill="none" stroke="none"/><text fill="#000000" stroke="none" font-family="Arial" font-size="13px" font-style="normal" font-weight="normal" text-decoration="none" x="1485" y="155">-bloodType: string</text></g></g><g transform="translate(-246,-14) scale(1,1)"><g><path fill="none" stroke="none"/><text fill="#000000" stroke="none" font-family="Arial" font-size="13px" font-style="normal" font-weight="normal" text-decoration="none" x="1485" y="170">-weight: Float</text></g></g><g transform="translate(-246,-14) scale(1,1)"><g><path fill="none" stroke="none"/><text fill="#000000" stroke="none" font-family="Arial" font-size="13px" font-style="normal" font-weight="normal" text-decoration="none" x="1485" y="185">-height: Float</text></g></g><g transform="translate(-246,-14) scale(1,1)"><g><path fill="none" stroke="none"/><text fill="#000000" stroke="none" font-family="Arial" font-size="13px" font-style="normal" font-weight="normal" text-decoration="none" x="1485" y="200">-bloodPressure: String</text></g></g><g transform="translate(-246,-14) scale(1,1)"><g><path fill="none" stroke="none"/><text fill="#000000" stroke="none" font-family="Arial" font-size="13px" font-style="normal" font-weight="normal" text-decoration="none" x="1485" y="215">-temperature: Float</text></g></g><g transform="translate(-246,-14) scale(1,1)"><g><path fill="none" stroke="none"/><text fill="#000000" stroke="none" font-family="Arial" font-size="13px" font-style="normal" font-weight="normal" text-decoration="none" x="1485" y="230">-respiratoryRate: int</text></g></g><g transform="translate(-246,-14) scale(1,1)"><g><path fill="none" stroke="none"/><text fill="#000000" stroke="none" font-family="Arial" font-size="13px" font-style="normal" font-weight="normal" text-decoration="none" x="1485" y="245">-hearRate: int</text></g></g><g transform="translate(-246,-14) scale(1,1)"><g><path fill="none" stroke="none"/><text fill="#000000" stroke="none" font-family="Arial" font-size="13px" font-style="normal" font-weight="normal" text-decoration="none" x="1485" y="260">-userId: User</text></g></g><g transform="translate(-246,-14) scale(1,1)"><g><path fill="none" stroke="none"/><text fill="#000000" stroke="none" font-family="Arial" font-size="13px" font-style="normal" font-weight="normal" text-decoration="none" x="1485" y="275">-doctorId: User</text></g></g><g transform="translate(-246,-14) scale(1,1)"><rect fill="#C0C0C0" stroke="none" x="399" y="703" width="143" height="87" opacity="0.2"/></g><g transform="translate(-246,-14) scale(1,1)"><rect fill="#ffffff" stroke="none" x="392" y="696" width="143" height="87"/></g><g transform="translate(-246,-14) scale(1,1)"><path fill="none" stroke="#000000" d="M 392 696 L 535 696 L 535 783 L 392 783 L 392 696 Z Z" stroke-miterlimit="10"/></g><g transform="translate(-246,-14) scale(1,1)"><path fill="none" stroke="#000000" d="M 392 721 L 535 721" stroke-miterlimit="10"/></g><g transform="translate(-246,-14) scale(1,1)"><path fill="none" stroke="#000000" d="M 392 774 L 535 774" stroke-miterlimit="10"/></g><g transform="translate(-246,-14) scale(1,1)"><g><path fill="none" stroke="none"/><text fill="#000000" stroke="none" font-family="Arial" font-size="13px" font-style="normal" font-weight="bold" text-decoration="none" x="434.957763671875" y="714">Specialty</text></g></g><g transform="translate(-246,-14) scale(1,1)"><g><path fill="none" stroke="none"/><text fill="#000000" stroke="none" font-family="Arial" font-size="13px" font-style="normal" font-weight="normal" text-decoration="none" x="397" y="737">-id: int</text></g></g><g transform="translate(-246,-14) scale(1,1)"><g><path fill="none" stroke="none"/><text fill="#000000" stroke="none" font-family="Arial" font-size="13px" font-style="normal" font-weight="normal" text-decoration="none" x="397" y="752">-name: string</text></g></g><g transform="translate(-246,-14) scale(1,1)"><g><path fill="none" stroke="none"/><text fill="#000000" stroke="none" font-family="Arial" font-size="13px" font-style="normal" font-weight="normal" text-decoration="none" x="397" y="767">-description: string</text></g></g><g transform="translate(-246,-14) scale(1,1)"><rect fill="#C0C0C0" stroke="none" x="263" y="143" width="143" height="102" opacity="0.2"/></g><g transform="translate(-246,-14) scale(1,1)"><rect fill="#ffffff" stroke="none" x="256" y="136" width="143" height="102"/></g><g transform="translate(-246,-14) scale(1,1)"><path fill="none" stroke="#000000" d="M 256 136 L 399 136 L 399 238 L 256 238 L 256 136 Z Z" stroke-miterlimit="10"/></g><g transform="translate(-246,-14) scale(1,1)"><path fill="none" stroke="#000000" d="M 256 161 L 399 161" stroke-miterlimit="10"/></g><g transform="translate(-246,-14) scale(1,1)"><path fill="none" stroke="#000000" d="M 256 229 L 399 229" stroke-miterlimit="10"/></g><g transform="translate(-246,-14) scale(1,1)"><g><path fill="none" stroke="none"/><text fill="#000000" stroke="none" font-family="Arial" font-size="13px" font-style="normal" font-weight="bold" text-decoration="none" x="287.424072265625" y="154">Appointment</text></g></g><g transform="translate(-246,-14) scale(1,1)"><g><path fill="none" stroke="none"/><text fill="#000000" stroke="none" font-family="Arial" font-size="13px" font-style="normal" font-weight="normal" text-decoration="none" x="261" y="177">-id: int</text></g></g><g transform="translate(-246,-14) scale(1,1)"><g><path fill="none" stroke="none"/><text fill="#000000" stroke="none" font-family="Arial" font-size="13px" font-style="normal" font-weight="normal" text-decoration="none" x="261" y="192">-date: Date</text></g></g><g transform="translate(-246,-14) scale(1,1)"><g><path fill="none" stroke="none"/><text fill="#000000" stroke="none" font-family="Arial" font-size="13px" font-style="normal" font-weight="normal" text-decoration="none" x="261" y="206.5">-status: enum</text></g></g><g transform="translate(-246,-14) scale(1,1)"><g><path fill="none" stroke="none"/><text fill="#000000" stroke="none" font-family="Arial" font-size="13px" font-style="normal" font-weight="normal" text-decoration="none" x="261" y="222">-patientId: User</text></g></g><g transform="translate(-246,-14) scale(1,1)"><path fill="none" stroke="#000000" d="M 400 181 L 727 152" stroke-miterlimit="10"/></g><g transform="translate(-246,-14) scale(1,1)"><g><path fill="none" stroke="none"/><text fill="#000000" stroke="none" font-family="Arial" font-size="13px" font-style="normal" font-weight="normal" text-decoration="none" x="404.5" y="207">1..*</text></g></g><g transform="translate(-246,-14) scale(1,1)"><g><path fill="none" stroke="none"/><text fill="#000000" stroke="none" font-family="Arial" font-size="13px" font-style="normal" font-weight="normal" text-decoration="none" x="705.5" y="178">1</text></g></g><g transform="translate(-246,-14) scale(1,1)"><path fill="none" stroke="#000000" d="M 489 695 L 758 241" stroke-miterlimit="10"/></g><g transform="translate(-246,-14) scale(1,1)"><g><path fill="none" stroke="none"/><text fill="#000000" stroke="none" font-family="Arial" font-size="13px" font-style="normal" font-weight="normal" text-decoration="none" x="506.5" y="687">1</text></g></g><g transform="translate(-246,-14) scale(1,1)"><g><path fill="none" stroke="none"/><text fill="#000000" stroke="none" font-family="Arial" font-size="13px" font-style="normal" font-weight="normal" text-decoration="none" x="759.5" y="271">1..*</text></g></g><g transform="translate(-246,-14) scale(1,1)"><path fill="none" stroke="#000000" d="M 904 146 L 1479 155" stroke-miterlimit="10"/></g><g transform="translate(-246,-14) scale(1,1)"><g><path fill="none" stroke="none"/><text fill="#000000" stroke="none" font-family="Arial" font-size="13px" font-style="normal" font-weight="normal" text-decoration="none" x="909.5" y="131">1</text></g></g><g transform="translate(-246,-14) scale(1,1)"><g><path fill="none" stroke="none"/><text fill="#000000" stroke="none" font-family="Arial" font-size="13px" font-style="normal" font-weight="normal" text-decoration="none" x="1446.5" y="148">1..*</text></g></g><g transform="translate(-246,-14) scale(1,1)"><rect fill="#C0C0C0" stroke="none" x="839" y="535" width="175" height="119" opacity="0.2"/></g><g transform="translate(-246,-14) scale(1,1)"><rect fill="#ffffff" stroke="none" x="832" y="528" width="175" height="119"/></g><g transform="translate(-246,-14) scale(1,1)"><path fill="none" stroke="#000000" d="M 832 528 L 1007 528 L 1007 647 L 832 647 L 832 528 Z Z" stroke-miterlimit="10"/></g><g transform="translate(-246,-14) scale(1,1)"><path fill="none" stroke="#000000" d="M 832 553 L 1007 553" stroke-miterlimit="10"/></g><g transform="translate(-246,-14) scale(1,1)"><path fill="none" stroke="#000000" d="M 832 638 L 1007 638" stroke-miterlimit="10"/></g><g transform="translate(-246,-14) scale(1,1)"><g><path fill="none" stroke="none"/><text fill="#000000" stroke="none" font-family="Arial" font-size="13px" font-style="normal" font-weight="bold" text-decoration="none" x="883.753173828125" y="546">Notification</text></g></g><g transform="translate(-246,-14) scale(1,1)"><g><path fill="none" stroke="none"/><text fill="#000000" stroke="none" font-family="Arial" font-size="13px" font-style="normal" font-weight="normal" text-decoration="none" x="837" y="571">+id: int</text></g></g><g transform="translate(-246,-14) scale(1,1)"><g><path fill="none" stroke="none"/><text fill="#000000" stroke="none" font-family="Arial" font-size="13px" font-style="normal" font-weight="normal" text-decoration="none" x="837" y="585.5">+type: enum</text></g></g><g transform="translate(-246,-14) scale(1,1)"><g><path fill="none" stroke="none"/><text fill="#000000" stroke="none" font-family="Arial" font-size="13px" font-style="normal" font-weight="normal" text-decoration="none" x="837" y="601">+read: Boolean</text></g></g><g transform="translate(-246,-14) scale(1,1)"><g><path fill="none" stroke="none"/><text fill="#000000" stroke="none" font-family="Arial" font-size="13px" font-style="normal" font-weight="normal" text-decoration="none" x="837" y="616">+message: String</text></g></g><g transform="translate(-246,-14) scale(1,1)"><g><path fill="none" stroke="none"/><text fill="#000000" stroke="none" font-family="Arial" font-size="13px" font-style="normal" font-weight="normal" text-decoration="none" x="837" y="631">+userId: User</text></g></g><g transform="translate(-246,-14) scale(1,1)"><path fill="none" stroke="#000000" d="M 838 241 L 905 527" stroke-miterlimit="10"/></g><g transform="translate(-246,-14) scale(1,1)"><g><path fill="none" stroke="none"/><text fill="#000000" stroke="none" font-family="Arial" font-size="13px" font-style="normal" font-weight="normal" text-decoration="none" x="852.5" y="267">1</text></g></g><g transform="translate(-246,-14) scale(1,1)"><g><path fill="none" stroke="none"/><text fill="#000000" stroke="none" font-family="Arial" font-size="13px" font-style="normal" font-weight="normal" text-decoration="none" x="912.5" y="517">0..*</text></g></g><g transform="translate(-246,-14) scale(1,1)"><rect fill="#C0C0C0" stroke="none" x="639" y="703" width="167" height="117" opacity="0.2"/></g><g transform="translate(-246,-14) scale(1,1)"><rect fill="#ffffff" stroke="none" x="632" y="696" width="167" height="117"/></g><g transform="translate(-246,-14) scale(1,1)"><path fill="none" stroke="#000000" d="M 632 696 L 799 696 L 799 813 L 632 813 L 632 696 Z Z" stroke-miterlimit="10"/></g><g transform="translate(-246,-14) scale(1,1)"><path fill="none" stroke="#000000" d="M 632 721 L 799 721" stroke-miterlimit="10"/></g><g transform="translate(-246,-14) scale(1,1)"><path fill="none" stroke="#000000" d="M 632 804 L 799 804" stroke-miterlimit="10"/></g><g transform="translate(-246,-14) scale(1,1)"><g><path fill="none" stroke="none"/><text fill="#000000" stroke="none" font-family="Arial" font-size="13px" font-style="normal" font-weight="bold" text-decoration="none" x="681.422607421875" y="714">Availability</text></g></g><g transform="translate(-246,-14) scale(1,1)"><g><path fill="none" stroke="none"/><text fill="#000000" stroke="none" font-family="Arial" font-size="13px" font-style="normal" font-weight="normal" text-decoration="none" x="637" y="737">-id: int</text></g></g><g transform="translate(-246,-14) scale(1,1)"><g><path fill="none" stroke="none"/><text fill="#000000" stroke="none" font-family="Arial" font-size="13px" font-style="normal" font-weight="normal" text-decoration="none" x="637" y="752">-userId: User</text></g></g><g transform="translate(-246,-14) scale(1,1)"><g><path fill="none" stroke="none"/><text fill="#000000" stroke="none" font-family="Arial" font-size="13px" font-style="normal" font-weight="normal" text-decoration="none" x="637" y="767">-dayOfWeek: enum</text></g></g><g transform="translate(-246,-14) scale(1,1)"><g><path fill="none" stroke="none"/><text fill="#000000" stroke="none" font-family="Arial" font-size="13px" font-style="normal" font-weight="normal" text-decoration="none" x="637" y="782">-startTime: Time</text></g></g><g transform="translate(-246,-14) scale(1,1)"><g><path fill="none" stroke="none"/><text fill="#000000" stroke="none" font-family="Arial" font-size="13px" font-style="normal" font-weight="normal" text-decoration="none" x="637" y="797">-endTime: Time</text></g></g><g transform="translate(-246,-14) scale(1,1)"><path fill="none" stroke="#000000" d="M 799 241 L 725 695" stroke-miterlimit="10"/></g><g transform="translate(-246,-14) scale(1,1)"><g><path fill="none" stroke="none"/><text fill="#000000" stroke="none" font-family="Arial" font-size="13px" font-style="normal" font-weight="normal" text-decoration="none" x="805.5" y="264">1</text></g></g><g transform="translate(-246,-14) scale(1,1)"><g><path fill="none" stroke="none"/><text fill="#000000" stroke="none" font-family="Arial" font-size="13px" font-style="normal" font-weight="normal" text-decoration="none" x="741.5" y="682">1..*</text></g></g><g transform="translate(-246,-14) scale(1,1)"><rect fill="#C0C0C0" stroke="none" x="1511" y="479" width="176.30517578125" height="162" opacity="0.2"/></g><g transform="translate(-246,-14) scale(1,1)"><rect fill="#ffffff" stroke="none" x="1504" y="472" width="176.30517578125" height="162"/></g><g transform="translate(-246,-14) scale(1,1)"><path fill="none" stroke="#000000" d="M 1504 472 L 1680.30517578125 472 L 1680.30517578125 634 L 1504 634 L 1504 472 Z Z" stroke-miterlimit="10"/></g><g transform="translate(-246,-14) scale(1,1)"><path fill="none" stroke="#000000" d="M 1504 497 L 1680.30517578125 497" stroke-miterlimit="10"/></g><g transform="translate(-246,-14) scale(1,1)"><path fill="none" stroke="#000000" d="M 1504 625 L 1680.30517578125 625" stroke-miterlimit="10"/></g><g transform="translate(-246,-14) scale(1,1)"><g><path fill="none" stroke="none"/><text fill="#000000" stroke="none" font-family="Arial" font-size="13px" font-style="normal" font-weight="bold" text-decoration="none" x="1554.225341796875" y="490">Prescription</text></g></g><g transform="translate(-246,-14) scale(1,1)"><g><path fill="none" stroke="none"/><text fill="#000000" stroke="none" font-family="Arial" font-size="13px" font-style="normal" font-weight="normal" text-decoration="none" x="1509" y="513">-id: int</text></g></g><g transform="translate(-246,-14) scale(1,1)"><g><path fill="none" stroke="none"/><text fill="#000000" stroke="none" font-family="Arial" font-size="13px" font-style="normal" font-weight="normal" text-decoration="none" x="1509" y="528">-consultationId: Consultation</text></g></g><g transform="translate(-246,-14) scale(1,1)"><g><path fill="none" stroke="none"/><text fill="#000000" stroke="none" font-family="Arial" font-size="13px" font-style="normal" font-weight="normal" text-decoration="none" x="1509" y="543">-pharmacyId: Pharmacy</text></g></g><g transform="translate(-246,-14) scale(1,1)"><g><path fill="none" stroke="none"/><text fill="#000000" stroke="none" font-family="Arial" font-size="13px" font-style="normal" font-weight="normal" text-decoration="none" x="1509" y="558">-medicineName: string</text></g></g><g transform="translate(-246,-14) scale(1,1)"><g><path fill="none" stroke="none"/><text fill="#000000" stroke="none" font-family="Arial" font-size="13px" font-style="normal" font-weight="normal" text-decoration="none" x="1509" y="573">-dosage: string</text></g></g><g transform="translate(-246,-14) scale(1,1)"><g><path fill="none" stroke="none"/><text fill="#000000" stroke="none" font-family="Arial" font-size="13px" font-style="normal" font-weight="normal" text-decoration="none" x="1509" y="588">-duration: string</text></g></g><g transform="translate(-246,-14) scale(1,1)"><g><path fill="none" stroke="none"/><text fill="#000000" stroke="none" font-family="Arial" font-size="13px" font-style="normal" font-weight="normal" text-decoration="none" x="1509" y="603">-instructions: string</text></g></g><g transform="translate(-246,-14) scale(1,1)"><g><path fill="none" stroke="none"/><text fill="#000000" stroke="none" font-family="Arial" font-size="13px" font-style="normal" font-weight="normal" text-decoration="none" x="1509" y="617.5">-status: enum</text></g></g><g transform="translate(-246,-14) scale(1,1)"><path fill="none" stroke="#000000" d="M 1578 292 L 1588 471" stroke-miterlimit="10"/></g><g transform="translate(-246,-14) scale(1,1)"><g><path fill="none" stroke="none"/><text fill="#000000" stroke="none" font-family="Arial" font-size="13px" font-style="normal" font-weight="normal" text-decoration="none" x="1560.5" y="315">1</text></g></g><g transform="translate(-246,-14) scale(1,1)"><g><path fill="none" stroke="none"/><text fill="#000000" stroke="none" font-family="Arial" font-size="13px" font-style="normal" font-weight="normal" text-decoration="none" x="1558.5" y="460">0..*</text></g></g><g transform="translate(-246,-14) scale(1,1)"><rect fill="#C0C0C0" stroke="none" x="1511" y="767" width="167" height="177" opacity="0.2"/></g><g transform="translate(-246,-14) scale(1,1)"><rect fill="#ffffff" stroke="none" x="1504" y="760" width="167" height="177"/></g><g transform="translate(-246,-14) scale(1,1)"><path fill="none" stroke="#000000" d="M 1504 760 L 1671 760 L 1671 937 L 1504 937 L 1504 760 Z Z" stroke-miterlimit="10"/></g><g transform="translate(-246,-14) scale(1,1)"><path fill="none" stroke="#000000" d="M 1504 785 L 1671 785" stroke-miterlimit="10"/></g><g transform="translate(-246,-14) scale(1,1)"><path fill="none" stroke="#000000" d="M 1504 928 L 1671 928" stroke-miterlimit="10"/></g><g transform="translate(-246,-14) scale(1,1)"><g><path fill="none" stroke="none"/><text fill="#000000" stroke="none" font-family="Arial" font-size="13px" font-style="normal" font-weight="bold" text-decoration="none" x="1556.425048828125" y="778">Pharmacy</text></g></g><g transform="translate(-246,-14) scale(1,1)"><g><path fill="none" stroke="none"/><text fill="#000000" stroke="none" font-family="Arial" font-size="13px" font-style="normal" font-weight="normal" text-decoration="none" x="1509" y="801">-id</text></g></g><g transform="translate(-246,-14) scale(1,1)"><g><path fill="none" stroke="none"/><text fill="#000000" stroke="none" font-family="Arial" font-size="13px" font-style="normal" font-weight="normal" text-decoration="none" x="1509" y="816">-name: string</text></g></g><g transform="translate(-246,-14) scale(1,1)"><g><path fill="none" stroke="none"/><text fill="#000000" stroke="none" font-family="Arial" font-size="13px" font-style="normal" font-weight="normal" text-decoration="none" x="1509" y="831">-address: string</text></g></g><g transform="translate(-246,-14) scale(1,1)"><g><path fill="none" stroke="none"/><text fill="#000000" stroke="none" font-family="Arial" font-size="13px" font-style="normal" font-weight="normal" text-decoration="none" x="1509" y="846">-phoneNumber: string</text></g></g><g transform="translate(-246,-14) scale(1,1)"><g><path fill="none" stroke="none"/><text fill="#000000" stroke="none" font-family="Arial" font-size="13px" font-style="normal" font-weight="normal" text-decoration="none" x="1509" y="861">-email: string</text></g></g><g transform="translate(-246,-14) scale(1,1)"><g><path fill="none" stroke="none"/><text fill="#000000" stroke="none" font-family="Arial" font-size="13px" font-style="normal" font-weight="normal" text-decoration="none" x="1509" y="876">-openingHours: string</text></g></g><g transform="translate(-246,-14) scale(1,1)"><g><path fill="none" stroke="none"/><text fill="#000000" stroke="none" font-family="Arial" font-size="13px" font-style="normal" font-weight="normal" text-decoration="none" x="1509" y="891">-latitude: number</text></g></g><g transform="translate(-246,-14) scale(1,1)"><g><path fill="none" stroke="none"/><text fill="#000000" stroke="none" font-family="Arial" font-size="13px" font-style="normal" font-weight="normal" text-decoration="none" x="1509" y="906">-longitude: number</text></g></g><g transform="translate(-246,-14) scale(1,1)"><g><path fill="none" stroke="none"/><text fill="#000000" stroke="none" font-family="Arial" font-size="13px" font-style="normal" font-weight="normal" text-decoration="none" x="1509" y="921">-prescriptions: list</text></g></g><g transform="translate(-246,-14) scale(1,1)"><path fill="none" stroke="#000000" d="M 1591 635 L 1589 759" stroke-miterlimit="10"/></g><g transform="translate(-246,-14) scale(1,1)"><g><path fill="none" stroke="none"/><text fill="#000000" stroke="none" font-family="Arial" font-size="13px" font-style="normal" font-weight="normal" text-decoration="none" x="1604.5" y="657">1..*</text></g></g><g transform="translate(-246,-14) scale(1,1)"><g><path fill="none" stroke="none"/><text fill="#000000" stroke="none" font-family="Arial" font-size="13px" font-style="normal" font-weight="normal" text-decoration="none" x="1602.5" y="747">1</text></g></g><g transform="translate(-246,-14) scale(1,1)"><rect fill="#C0C0C0" stroke="none" x="1959" y="335" width="176.30517578125" height="147" opacity="0.2"/></g><g transform="translate(-246,-14) scale(1,1)"><rect fill="#ffffff" stroke="none" x="1952" y="328" width="176.30517578125" height="147"/></g><g transform="translate(-246,-14) scale(1,1)"><path fill="none" stroke="#000000" d="M 1952 328 L 2128.30517578125 328 L 2128.30517578125 475 L 1952 475 L 1952 328 Z Z" stroke-miterlimit="10"/></g><g transform="translate(-246,-14) scale(1,1)"><path fill="none" stroke="#000000" d="M 1952 353 L 2128.30517578125 353" stroke-miterlimit="10"/></g><g transform="translate(-246,-14) scale(1,1)"><path fill="none" stroke="#000000" d="M 1952 466 L 2128.30517578125 466" stroke-miterlimit="10"/></g><g transform="translate(-246,-14) scale(1,1)"><g><path fill="none" stroke="none"/><text fill="#000000" stroke="none" font-family="Arial" font-size="13px" font-style="normal" font-weight="bold" text-decoration="none" x="1988.501708984375" y="346">LaboratoryOrder</text></g></g><g transform="translate(-246,-14) scale(1,1)"><g><path fill="none" stroke="none"/><text fill="#000000" stroke="none" font-family="Arial" font-size="13px" font-style="normal" font-weight="normal" text-decoration="none" x="1957" y="369">-id: int</text></g></g><g transform="translate(-246,-14) scale(1,1)"><g><path fill="none" stroke="none"/><text fill="#000000" stroke="none" font-family="Arial" font-size="13px" font-style="normal" font-weight="normal" text-decoration="none" x="1957" y="384">-consultationId: Consultation</text></g></g><g transform="translate(-246,-14) scale(1,1)"><g><path fill="none" stroke="none"/><text fill="#000000" stroke="none" font-family="Arial" font-size="13px" font-style="normal" font-weight="normal" text-decoration="none" x="1957" y="399">-tests: list</text></g></g><g transform="translate(-246,-14) scale(1,1)"><g><path fill="none" stroke="none"/><text fill="#000000" stroke="none" font-family="Arial" font-size="13px" font-style="normal" font-weight="normal" text-decoration="none" x="1957" y="414">-reportFileUrl: string</text></g></g><g transform="translate(-246,-14) scale(1,1)"><g><path fill="none" stroke="none"/><text fill="#000000" stroke="none" font-family="Arial" font-size="13px" font-style="normal" font-weight="normal" text-decoration="none" x="1957" y="429">-reportType: string</text></g></g><g transform="translate(-246,-14) scale(1,1)"><g><path fill="none" stroke="none"/><text fill="#000000" stroke="none" font-family="Arial" font-size="13px" font-style="normal" font-weight="normal" text-decoration="none" x="1957" y="444">-resultSummary: string</text></g></g><g transform="translate(-246,-14) scale(1,1)"><g><path fill="none" stroke="none"/><text fill="#000000" stroke="none" font-family="Arial" font-size="13px" font-style="normal" font-weight="normal" text-decoration="none" x="1957" y="458.5">-status: enum</text></g></g><g transform="translate(-246,-14) scale(1,1)"><path fill="none" stroke="#000000" d="M 1664 205 L 1951 355" stroke-miterlimit="10"/></g><g transform="translate(-246,-14) scale(1,1)"><g><path fill="none" stroke="none"/><text fill="#000000" stroke="none" font-family="Arial" font-size="13px" font-style="normal" font-weight="normal" text-decoration="none" x="1676.5" y="202">1</text></g></g><g transform="translate(-246,-14) scale(1,1)"><g><path fill="none" stroke="none"/><text fill="#000000" stroke="none" font-family="Arial" font-size="13px" font-style="normal" font-weight="normal" text-decoration="none" x="1919.5" y="333">0..*</text></g></g><g transform="translate(-246,-14) scale(1,1)"><rect fill="#C0C0C0" stroke="none" x="1967" y="655" width="175" height="132" opacity="0.2"/></g><g transform="translate(-246,-14) scale(1,1)"><rect fill="#ffffff" stroke="none" x="1960" y="648" width="175" height="132"/></g><g transform="translate(-246,-14) scale(1,1)"><path fill="none" stroke="#000000" d="M 1960 648 L 2135 648 L 2135 780 L 1960 780 L 1960 648 Z Z" stroke-miterlimit="10"/></g><g transform="translate(-246,-14) scale(1,1)"><path fill="none" stroke="#000000" d="M 1960 673 L 2135 673" stroke-miterlimit="10"/></g><g transform="translate(-246,-14) scale(1,1)"><path fill="none" stroke="#000000" d="M 1960 771 L 2135 771" stroke-miterlimit="10"/></g><g transform="translate(-246,-14) scale(1,1)"><g><path fill="none" stroke="none"/><text fill="#000000" stroke="none" font-family="Arial" font-size="13px" font-style="normal" font-weight="bold" text-decoration="none" x="2034.617431640625" y="666">Test</text></g></g><g transform="translate(-246,-14) scale(1,1)"><g><path fill="none" stroke="none"/><text fill="#000000" stroke="none" font-family="Arial" font-size="13px" font-style="normal" font-weight="normal" text-decoration="none" x="1965" y="689">-id: int</text></g></g><g transform="translate(-246,-14) scale(1,1)"><g><path fill="none" stroke="none"/><text fill="#000000" stroke="none" font-family="Arial" font-size="13px" font-style="normal" font-weight="normal" text-decoration="none" x="1965" y="704">-name: string</text></g></g><g transform="translate(-246,-14) scale(1,1)"><g><path fill="none" stroke="none"/><text fill="#000000" stroke="none" font-family="Arial" font-size="13px" font-style="normal" font-weight="normal" text-decoration="none" x="1965" y="719">-resultValue: string</text></g></g><g transform="translate(-246,-14) scale(1,1)"><g><path fill="none" stroke="none"/><text fill="#000000" stroke="none" font-family="Arial" font-size="13px" font-style="normal" font-weight="normal" text-decoration="none" x="1965" y="734">-unit: string</text></g></g><g transform="translate(-246,-14) scale(1,1)"><g><path fill="none" stroke="none"/><text fill="#000000" stroke="none" font-family="Arial" font-size="13px" font-style="normal" font-weight="normal" text-decoration="none" x="1965" y="749">-referenceRange: string</text></g></g><g transform="translate(-246,-14) scale(1,1)"><g><path fill="none" stroke="none"/><text fill="#000000" stroke="none" font-family="Arial" font-size="13px" font-style="normal" font-weight="normal" text-decoration="none" x="1965" y="763.5">-status: enum</text></g></g><g transform="translate(-246,-14) scale(1,1)"><path fill="none" stroke="#000000" d="M 2046 647 L 2042 476" stroke-miterlimit="10"/></g><g transform="translate(-246,-14) scale(1,1)"><g><path fill="none" stroke="none"/><text fill="#000000" stroke="none" font-family="Arial" font-size="13px" font-style="normal" font-weight="normal" text-decoration="none" x="2053.5" y="642">0..*</text></g></g><g transform="translate(-246,-14) scale(1,1)"><g><path fill="none" stroke="none"/><text fill="#000000" stroke="none" font-family="Arial" font-size="13px" font-style="normal" font-weight="normal" text-decoration="none" x="2049.5" y="498">1</text></g></g><g transform="translate(-246,-14) scale(1,1)"><rect fill="#C0C0C0" stroke="none" x="1119" y="431" width="200" height="147" opacity="0.2"/></g><g transform="translate(-246,-14) scale(1,1)"><rect fill="#ffffff" stroke="none" x="1112" y="424" width="200" height="147"/></g><g transform="translate(-246,-14) scale(1,1)"><path fill="none" stroke="#000000" d="M 1112 424 L 1312 424 L 1312 571 L 1112 571 L 1112 424 Z Z" stroke-miterlimit="10"/></g><g transform="translate(-246,-14) scale(1,1)"><path fill="none" stroke="#000000" d="M 1112 449 L 1312 449" stroke-miterlimit="10"/></g><g transform="translate(-246,-14) scale(1,1)"><path fill="none" stroke="#000000" d="M 1112 562 L 1312 562" stroke-miterlimit="10"/></g><g transform="translate(-246,-14) scale(1,1)"><g><path fill="none" stroke="none"/><text fill="#000000" stroke="none" font-family="Arial" font-size="13px" font-style="normal" font-weight="bold" text-decoration="none" x="1156.378662109375" y="442">MedicalDocument</text></g></g><g transform="translate(-246,-14) scale(1,1)"><g><path fill="none" stroke="none"/><text fill="#000000" stroke="none" font-family="Arial" font-size="13px" font-style="normal" font-weight="normal" text-decoration="none" x="1117" y="465">-id: int</text></g></g><g transform="translate(-246,-14) scale(1,1)"><g><path fill="none" stroke="none"/><text fill="#000000" stroke="none" font-family="Arial" font-size="13px" font-style="normal" font-weight="normal" text-decoration="none" x="1117" y="480">-uploaderId: User</text></g></g><g transform="translate(-246,-14) scale(1,1)"><g><path fill="none" stroke="none"/><text fill="#000000" stroke="none" font-family="Arial" font-size="13px" font-style="normal" font-weight="normal" text-decoration="none" x="1117" y="495">-patientId: User</text></g></g><g transform="translate(-246,-14) scale(1,1)"><g><path fill="none" stroke="none"/><text fill="#000000" stroke="none" font-family="Arial" font-size="13px" font-style="normal" font-weight="normal" text-decoration="none" x="1117" y="510">-consultationId: Consultation</text></g></g><g transform="translate(-246,-14) scale(1,1)"><g><path fill="none" stroke="none"/><text fill="#000000" stroke="none" font-family="Arial" font-size="13px" font-style="normal" font-weight="normal" text-decoration="none" x="1117" y="525">-documentType: string</text></g></g><g transform="translate(-246,-14) scale(1,1)"><g><path fill="none" stroke="none"/><text fill="#000000" stroke="none" font-family="Arial" font-size="13px" font-style="normal" font-weight="normal" text-decoration="none" x="1117" y="540">-fileUrl: string</text></g></g><g transform="translate(-246,-14) scale(1,1)"><g><path fill="none" stroke="none"/><text fill="#000000" stroke="none" font-family="Arial" font-size="13px" font-style="normal" font-weight="normal" text-decoration="none" x="1117" y="555">-fileSize: Number</text></g></g><g transform="translate(-246,-14) scale(1,1)"><path fill="none" stroke="#000000" d="M 904 223 L 1129 423" stroke-miterlimit="10"/></g><g transform="translate(-246,-14) scale(1,1)"><g><path fill="none" stroke="none"/><text fill="#000000" stroke="none" font-family="Arial" font-size="13px" font-style="normal" font-weight="normal" text-decoration="none" x="905.5" y="259">1</text></g></g><g transform="translate(-246,-14) scale(1,1)"><g><path fill="none" stroke="none"/><text fill="#000000" stroke="none" font-family="Arial" font-size="13px" font-style="normal" font-weight="normal" text-decoration="none" x="1079.5" y="418">0..*</text></g></g><g transform="translate(-246,-14) scale(1,1)"><path fill="none" stroke="#000000" d="M 1290 423 L 1479 244" stroke-miterlimit="10"/></g><g transform="translate(-246,-14) scale(1,1)"><g><path fill="none" stroke="none"/><text fill="#000000" stroke="none" font-family="Arial" font-size="13px" font-style="normal" font-weight="normal" text-decoration="none" x="1314.5" y="418">0..*</text></g></g><g transform="translate(-246,-14) scale(1,1)"><g><path fill="none" stroke="none"/><text fill="#000000" stroke="none" font-family="Arial" font-size="13px" font-style="normal" font-weight="normal" text-decoration="none" x="1467.885009765625" y="272">1</text></g></g></g></svg>